<svg xmlns="http://www.w3.org/2000/svg" xmlns:xlink="http://www.w3.org/1999/xlink" viewBox="0 0 280.09 280.09"><defs><style>.a{fill:url(#a);}.b{fill:none;stroke:#20558d;stroke-miterlimit:10;stroke-width:14px;}.c{opacity:0.4;}.d{fill:#215e95;}.e{fill:#fff;}</style><radialGradient id="a" cx="140.05" cy="140.05" r="238.38" gradientUnits="userSpaceOnUse"><stop offset="0" stop-color="#0796de"/><stop offset="1" stop-color="#2b578b"/></radialGradient></defs><rect class="a" x="7" y="7" width="266.09" height="266.09" rx="8.03"/><rect class="b" x="7" y="7" width="266.09" height="266.09" rx="12.11"/><g class="c"><rect class="d" x="26.75" y="24.63" width="19.95" height="230.83" rx="1.56"/><rect class="d" x="60.92" y="24.63" width="19.95" height="230.83" rx="1.56"/><rect class="d" x="94.95" y="24.63" width="19.95" height="230.83" rx="1.56"/><rect class="d" x="130.14" y="24.63" width="19.95" height="230.83" rx="1.56"/><rect class="d" x="164.17" y="24.63" width="19.95" height="230.83" rx="1.56"/><rect class="d" x="199.37" y="24.63" width="19.95" height="230.83" rx="1.56"/><rect class="d" x="233.39" y="24.63" width="19.95" height="230.83" rx="1.56"/></g><path class="e" d="M150,81.19v157.1C254.26,234.51,257,85.83,150,81.19Zm15.63,139.25V98.09C237.74,121.74,218.47,208.54,165.65,220.44Z"/><path class="e" d="M130.07,198.91V41.81C23.14,46.45,25.83,195.13,130.07,198.91ZM114.44,58.71V181.06C61.62,169.16,42.35,82.36,114.44,58.71Z"/></svg>